<svg width="144" height="30" viewBox="0 0 144 30" fill="none" xmlns="http://www.w3.org/2000/svg">
<path fill-rule="evenodd" clip-rule="evenodd" d="M0 22.9922V14.775H8.47366V22.9922H0ZM8.47366 14.775V6.55781H16.9473V14.775H8.47366Z" fill="#FFDD00"/>
<path d="M21.2151 29.9156V6.69844H24.499V10.4391L23.9953 10.1578C24.1236 9.53438 24.48 8.93906 25.0693 8.36719C25.6586 7.79531 26.381 7.32656 27.2317 6.96562C28.0824 6.60469 28.9663 6.42188 29.8693 6.42188C31.3663 6.42188 32.6923 6.7875 33.8519 7.51406C35.0115 8.24063 35.924 9.23906 36.5988 10.5047C37.2737 11.7703 37.6111 13.2281 37.6111 14.8688C37.6111 16.5094 37.2784 17.9391 36.6178 19.2141C35.9525 20.4938 35.0448 21.5016 33.8852 22.2375C32.7255 22.9734 31.4186 23.3438 29.9691 23.3438C28.9996 23.3438 28.0634 23.1516 27.1556 22.7672C26.2479 22.3828 25.4828 21.8906 24.8507 21.2859C24.2186 20.6859 23.8289 20.0625 23.6816 19.4156L24.5038 18.9797V29.9156H21.2151ZM29.4321 20.3813C30.4016 20.3813 31.2665 20.1422 32.0222 19.6641C32.7826 19.1859 33.3814 18.5297 33.8234 17.7C34.2653 16.8703 34.4887 15.9234 34.4887 14.8641C34.4887 13.8047 34.2749 12.8625 33.8424 12.0422C33.4099 11.2219 32.8158 10.575 32.0554 10.0969C31.295 9.61875 30.4206 9.37969 29.4321 9.37969C28.4436 9.37969 27.5691 9.61406 26.8087 10.0828C26.0483 10.5516 25.4495 11.1984 25.0075 12.0328C24.5655 12.8625 24.3422 13.8094 24.3422 14.8688C24.3422 15.9281 24.5655 16.875 25.0075 17.7047C25.4495 18.5344 26.0483 19.1906 26.8087 19.6687C27.5691 20.1469 28.4388 20.3859 29.4321 20.3859V20.3813Z" fill="#FFDD00"/>
<path d="M39.6689 23.0625V6.69844H42.9529V11.8406L42.6392 10.5938C42.8721 9.80625 43.2665 9.08906 43.8226 8.44219C44.3786 7.8 45.025 7.28906 45.7521 6.91406C46.4792 6.53906 47.2301 6.35156 48.0095 6.35156C48.3659 6.35156 48.7081 6.38438 49.036 6.44531C49.364 6.50625 49.6206 6.58125 49.8107 6.66563L48.9553 10.1578C48.7034 10.0547 48.423 9.96563 48.1188 9.89531C47.8147 9.825 47.5153 9.7875 47.2206 9.7875C46.6503 9.7875 46.1085 9.89531 45.5953 10.1156C45.0772 10.3359 44.6257 10.6359 44.236 11.0203C43.8463 11.4047 43.5374 11.85 43.3046 12.3609C43.0717 12.8719 42.9576 13.425 42.9576 14.0297V23.0672H39.6737L39.6689 23.0625Z" fill="#FFDD00"/>
<path d="M57.8899 23.3719C56.2693 23.3719 54.8198 23.0016 53.5461 22.2656C52.2725 21.5297 51.265 20.5219 50.5283 19.2422C49.7917 17.9625 49.421 16.5047 49.421 14.8641C49.421 13.2234 49.7869 11.7656 50.5283 10.4859C51.265 9.20625 52.2725 8.19844 53.5461 7.4625C54.8198 6.72656 56.2693 6.35625 57.8899 6.35625C59.5105 6.35625 60.9267 6.72656 62.2004 7.4625C63.4741 8.19844 64.4816 9.20625 65.2182 10.4859C65.9549 11.7656 66.3255 13.2234 66.3255 14.8641C66.3255 16.5047 65.9549 17.9672 65.2182 19.2422C64.4816 20.5219 63.4741 21.5297 62.2004 22.2656C60.9267 23.0016 59.4867 23.3719 57.8899 23.3719ZM57.8899 20.4422C58.8784 20.4422 59.7624 20.1984 60.5418 19.7109C61.3212 19.2234 61.9343 18.5578 62.3762 17.7188C62.8182 16.8797 63.0273 15.9281 63.0083 14.8688C63.0273 13.7906 62.8182 12.8297 62.3762 11.9859C61.9343 11.1469 61.3212 10.4859 60.5418 10.0078C59.7624 9.52969 58.8784 9.29062 57.8899 9.29062C56.9014 9.29062 56.0079 9.53437 55.219 10.0219C54.4301 10.5094 53.8123 11.175 53.3703 12.0141C52.9283 12.8531 52.7192 13.8047 52.7382 14.8641C52.7192 15.9234 52.9283 16.875 53.3703 17.7141C53.8123 18.5578 54.4301 19.2188 55.219 19.7063C56.0079 20.1938 56.8966 20.4375 57.8899 20.4375V20.4422Z" fill="#FFDD00"/>
<path d="M68.3406 29.9156V6.69844H71.6246V10.4391L71.1208 10.1578C71.2491 9.53438 71.6056 8.93906 72.1949 8.36719C72.7842 7.79531 73.5065 7.32656 74.3572 6.96562C75.2079 6.60469 76.0919 6.42188 76.9949 6.42188C78.4919 6.42188 79.8178 6.7875 80.9774 7.51406C82.137 8.24063 83.0495 9.23906 83.7244 10.5047C84.3992 11.7703 84.7366 13.2281 84.7366 14.8688C84.7366 16.5094 84.404 17.9391 83.7434 19.2141C83.078 20.4938 82.1703 21.5016 81.0107 22.2375C79.8511 22.9734 78.5442 23.3438 77.0947 23.3438C76.1252 23.3438 75.1889 23.1516 74.2812 22.7672C73.3735 22.3828 72.6083 21.8906 71.9762 21.2859C71.3442 20.6859 70.9545 20.0625 70.8071 19.4156L71.6293 18.9797V29.9156H68.3406ZM76.5576 20.3813C77.5271 20.3813 78.3921 20.1422 79.1477 19.6641C79.9081 19.1859 80.5069 18.5297 80.9489 17.7C81.3909 16.8703 81.6143 15.9234 81.6143 14.8641C81.6143 13.8047 81.4004 12.8625 80.9679 12.0422C80.5354 11.2219 79.9414 10.575 79.181 10.0969C78.4206 9.61875 77.5461 9.37969 76.5576 9.37969C75.5691 9.37969 74.6947 9.61406 73.9343 10.0828C73.1739 10.5516 72.5751 11.1984 72.1331 12.0328C71.6911 12.8625 71.4677 13.8094 71.4677 14.8688C71.4677 15.9281 71.6911 16.875 72.1331 17.7047C72.5751 18.5344 73.1739 19.1906 73.9343 19.6687C74.6947 20.1469 75.5644 20.3859 76.5576 20.3859V20.3813Z" fill="#FFDD00"/>
<path d="M94.6123 23.3719C92.9061 23.3719 91.3949 23.0156 90.0784 22.2984C88.762 21.5812 87.7307 20.6016 86.9798 19.3547C86.2337 18.1078 85.8582 16.6734 85.8582 15.0562C85.8582 13.7672 86.0673 12.5953 86.4903 11.5359C86.9133 10.4766 87.4978 9.55781 88.244 8.77969C88.9901 8.00156 89.8883 7.39687 90.9291 6.97031C91.9699 6.54375 93.1058 6.33281 94.3271 6.33281C95.4012 6.33281 96.3992 6.53438 97.3307 6.94219C98.2574 7.34531 99.0654 7.90313 99.7497 8.61094C100.434 9.31875 100.962 10.1531 101.328 11.1187C101.693 12.0844 101.869 13.1391 101.85 14.2828L101.817 15.6563H88.263L87.5359 13.1016H99.0036L98.5283 13.6313V12.8812C98.4665 12.1969 98.2337 11.5828 97.8345 11.0437C97.4353 10.5047 96.9267 10.0781 96.3184 9.76406C95.7054 9.45 95.0448 9.29531 94.3271 9.29531C93.1913 9.29531 92.2313 9.50625 91.4519 9.93281C90.6725 10.3594 90.0832 10.9828 89.684 11.8031C89.2848 12.6234 89.0852 13.6359 89.0852 14.8406C89.0852 16.0453 89.3275 16.9734 89.8123 17.8172C90.297 18.6562 90.9814 19.3078 91.8654 19.7672C92.7493 20.2266 93.7711 20.4516 94.9307 20.4516C95.7529 20.4516 96.5133 20.3156 97.2214 20.0484C97.9248 19.7766 98.6899 19.2891 99.5121 18.5859L101.156 20.8594C100.653 21.3563 100.035 21.7922 99.3077 22.1672C98.5806 22.5422 97.8107 22.8375 97.0028 23.0531C96.1901 23.2734 95.3964 23.3813 94.617 23.3813L94.6123 23.3719Z" fill="#FFDD00"/>
<path d="M103.932 23.0625V0H107.187V23.0625H103.932Z" fill="#FFDD00"/>
<path d="M110.191 23.0625V0H113.446V23.0625H110.191Z" fill="#FFDD00"/>
<path d="M124.263 23.3719C122.557 23.3719 121.046 23.0156 119.729 22.2984C118.413 21.5812 117.381 20.6016 116.631 19.3547C115.884 18.1078 115.509 16.6734 115.509 15.0562C115.509 13.7672 115.718 12.5953 116.141 11.5359C116.564 10.4766 117.149 9.55781 117.895 8.77969C118.641 8.00156 119.539 7.39687 120.58 6.97031C121.621 6.54375 122.756 6.33281 123.978 6.33281C125.052 6.33281 126.05 6.53438 126.981 6.94219C127.908 7.34531 128.716 7.90313 129.4 8.61094C130.085 9.31875 130.612 10.1531 130.978 11.1187C131.344 12.0844 131.52 13.1391 131.501 14.2828L131.468 15.6563H117.914L117.187 13.1016H128.654L128.179 13.6313V12.8812C128.117 12.1969 127.884 11.5828 127.485 11.0437C127.086 10.5047 126.577 10.0781 125.969 9.76406C125.356 9.45 124.695 9.29531 123.978 9.29531C122.842 9.29531 121.882 9.50625 121.103 9.93281C120.323 10.3594 119.734 10.9828 119.335 11.8031C118.935 12.6234 118.736 13.6359 118.736 14.8406C118.736 16.0453 118.978 16.9734 119.463 17.8172C119.948 18.6562 120.632 19.3078 121.516 19.7672C122.4 20.2266 123.422 20.4516 124.581 20.4516C125.404 20.4516 126.164 20.3156 126.872 20.0484C127.575 19.7766 128.341 19.2891 129.163 18.5859L130.807 20.8594C130.303 21.3563 129.686 21.7922 128.958 22.1672C128.231 22.5422 127.461 22.8375 126.653 23.0531C125.841 23.2734 125.047 23.3813 124.268 23.3813L124.263 23.3719Z" fill="#FFDD00"/>
<path d="M133.568 23.0625V6.69844H136.852V11.8406L136.539 10.5938C136.771 9.80625 137.166 9.08906 137.722 8.44219C138.278 7.8 138.924 7.28906 139.652 6.91406C140.379 6.53906 141.13 6.35156 141.909 6.35156C142.265 6.35156 142.608 6.38438 142.935 6.44531C143.263 6.50625 143.52 6.58125 143.71 6.66563L142.855 10.1578C142.603 10.0547 142.322 9.96563 142.018 9.89531C141.714 9.825 141.415 9.7875 141.12 9.7875C140.55 9.7875 140.008 9.89531 139.495 10.1156C138.977 10.3359 138.525 10.6359 138.135 11.0203C137.746 11.4047 137.437 11.85 137.204 12.3609C136.971 12.8719 136.857 13.425 136.857 14.0297V23.0672H133.573L133.568 23.0625Z" fill="#FFDD00"/>
</svg>
